<mxfile host="app.diagrams.net" modified="2021-03-04T10:54:19.347Z" agent="5.0 (Windows NT 10.0; Win64; x64) AppleWebKit/537.36 (KHTML, like Gecko) Chrome/88.0.4324.190 Safari/537.36" etag="mevfpDUfzVUXS6oDbRhC" version="14.4.4" type="github">
  <diagram id="C5RBs43oDa-KdzZeNtuy" name="Page-1">
    <mxGraphModel dx="1038" dy="548" grid="1" gridSize="10" guides="1" tooltips="1" connect="1" arrows="1" fold="1" page="1" pageScale="1" pageWidth="827" pageHeight="1169" background="#114B5F" math="0" shadow="0">
      <root>
        <mxCell id="WIyWlLk6GJQsqaUBKTNV-0" />
        <mxCell id="WIyWlLk6GJQsqaUBKTNV-1" parent="WIyWlLk6GJQsqaUBKTNV-0" />
        <mxCell id="ZSsBjlvNLSMKLyV6SMWF-3" style="edgeStyle=orthogonalEdgeStyle;curved=0;rounded=1;sketch=0;orthogonalLoop=1;jettySize=auto;html=1;exitX=1;exitY=0.5;exitDx=0;exitDy=0;entryX=0;entryY=0.5;entryDx=0;entryDy=0;strokeColor=#028090;fillColor=#F45B69;fontColor=#E4FDE1;labelBackgroundColor=#114B5F;" edge="1" parent="WIyWlLk6GJQsqaUBKTNV-1" source="ZSsBjlvNLSMKLyV6SMWF-0" target="ZSsBjlvNLSMKLyV6SMWF-1">
          <mxGeometry relative="1" as="geometry" />
        </mxCell>
        <mxCell id="ZSsBjlvNLSMKLyV6SMWF-0" value="&lt;font style=&quot;font-size: 24px&quot;&gt;Begin&lt;/font&gt;" style="ellipse;whiteSpace=wrap;html=1;rounded=0;sketch=0;strokeColor=#028090;fillColor=#F45B69;fontColor=#E4FDE1;" vertex="1" parent="WIyWlLk6GJQsqaUBKTNV-1">
          <mxGeometry y="20" width="120" height="80" as="geometry" />
        </mxCell>
        <mxCell id="ZSsBjlvNLSMKLyV6SMWF-5" style="edgeStyle=orthogonalEdgeStyle;curved=0;rounded=1;sketch=0;orthogonalLoop=1;jettySize=auto;html=1;exitX=1;exitY=0.5;exitDx=0;exitDy=0;entryX=0;entryY=0.5;entryDx=0;entryDy=0;strokeColor=#028090;fillColor=#F45B69;fontColor=#E4FDE1;labelBackgroundColor=#114B5F;" edge="1" parent="WIyWlLk6GJQsqaUBKTNV-1" source="ZSsBjlvNLSMKLyV6SMWF-1" target="ZSsBjlvNLSMKLyV6SMWF-4">
          <mxGeometry relative="1" as="geometry" />
        </mxCell>
        <mxCell id="ZSsBjlvNLSMKLyV6SMWF-1" value="&lt;font style=&quot;font-size: 18px&quot;&gt;Nhập n&lt;/font&gt;" style="shape=parallelogram;perimeter=parallelogramPerimeter;whiteSpace=wrap;html=1;fixedSize=1;rounded=0;sketch=0;strokeColor=#028090;fillColor=#F45B69;fontColor=#E4FDE1;" vertex="1" parent="WIyWlLk6GJQsqaUBKTNV-1">
          <mxGeometry x="210" y="30" width="120" height="60" as="geometry" />
        </mxCell>
        <mxCell id="ZSsBjlvNLSMKLyV6SMWF-6" style="edgeStyle=orthogonalEdgeStyle;curved=0;rounded=1;sketch=0;orthogonalLoop=1;jettySize=auto;html=1;exitX=1;exitY=0.5;exitDx=0;exitDy=0;strokeColor=#028090;fillColor=#F45B69;fontColor=#E4FDE1;labelBackgroundColor=#114B5F;" edge="1" parent="WIyWlLk6GJQsqaUBKTNV-1" source="ZSsBjlvNLSMKLyV6SMWF-4" target="ZSsBjlvNLSMKLyV6SMWF-7">
          <mxGeometry relative="1" as="geometry">
            <mxPoint x="600" y="60" as="targetPoint" />
          </mxGeometry>
        </mxCell>
        <mxCell id="ZSsBjlvNLSMKLyV6SMWF-10" style="edgeStyle=orthogonalEdgeStyle;curved=0;rounded=1;sketch=0;orthogonalLoop=1;jettySize=auto;html=1;exitX=0.5;exitY=1;exitDx=0;exitDy=0;entryX=0.5;entryY=0;entryDx=0;entryDy=0;strokeColor=#028090;fillColor=#F45B69;fontColor=#E4FDE1;labelBackgroundColor=#114B5F;" edge="1" parent="WIyWlLk6GJQsqaUBKTNV-1" source="ZSsBjlvNLSMKLyV6SMWF-4" target="ZSsBjlvNLSMKLyV6SMWF-9">
          <mxGeometry relative="1" as="geometry" />
        </mxCell>
        <mxCell id="ZSsBjlvNLSMKLyV6SMWF-4" value="&lt;font style=&quot;font-size: 18px&quot;&gt;n&amp;gt;0&lt;/font&gt;" style="rhombus;whiteSpace=wrap;html=1;rounded=0;sketch=0;strokeColor=#028090;fillColor=#F45B69;fontColor=#E4FDE1;" vertex="1" parent="WIyWlLk6GJQsqaUBKTNV-1">
          <mxGeometry x="414" y="20" width="80" height="80" as="geometry" />
        </mxCell>
        <mxCell id="ZSsBjlvNLSMKLyV6SMWF-32" style="edgeStyle=orthogonalEdgeStyle;curved=0;rounded=1;sketch=0;orthogonalLoop=1;jettySize=auto;html=1;exitX=0.5;exitY=1;exitDx=0;exitDy=0;entryX=0.5;entryY=0;entryDx=0;entryDy=0;strokeColor=#028090;fillColor=#F45B69;fontColor=#E4FDE1;" edge="1" parent="WIyWlLk6GJQsqaUBKTNV-1" source="ZSsBjlvNLSMKLyV6SMWF-7" target="ZSsBjlvNLSMKLyV6SMWF-24">
          <mxGeometry relative="1" as="geometry" />
        </mxCell>
        <mxCell id="ZSsBjlvNLSMKLyV6SMWF-7" value="&lt;font style=&quot;font-size: 18px&quot;&gt;Tao ko in&lt;/font&gt;" style="shape=parallelogram;perimeter=parallelogramPerimeter;whiteSpace=wrap;html=1;fixedSize=1;fillColor=#F45B69;strokeColor=#028090;fontColor=#E4FDE1;" vertex="1" parent="WIyWlLk6GJQsqaUBKTNV-1">
          <mxGeometry x="590" y="30" width="120" height="60" as="geometry" />
        </mxCell>
        <mxCell id="ZSsBjlvNLSMKLyV6SMWF-8" value="Sai" style="text;html=1;strokeColor=none;fillColor=none;align=center;verticalAlign=middle;whiteSpace=wrap;rounded=0;sketch=0;fontColor=#E4FDE1;" vertex="1" parent="WIyWlLk6GJQsqaUBKTNV-1">
          <mxGeometry x="530" y="30" width="40" height="20" as="geometry" />
        </mxCell>
        <mxCell id="ZSsBjlvNLSMKLyV6SMWF-12" style="edgeStyle=orthogonalEdgeStyle;curved=0;rounded=1;sketch=0;orthogonalLoop=1;jettySize=auto;html=1;exitX=0.5;exitY=1;exitDx=0;exitDy=0;entryX=0.5;entryY=0;entryDx=0;entryDy=0;strokeColor=#028090;fillColor=#F45B69;fontColor=#E4FDE1;labelBackgroundColor=#114B5F;" edge="1" parent="WIyWlLk6GJQsqaUBKTNV-1" source="ZSsBjlvNLSMKLyV6SMWF-9" target="ZSsBjlvNLSMKLyV6SMWF-11">
          <mxGeometry relative="1" as="geometry" />
        </mxCell>
        <mxCell id="ZSsBjlvNLSMKLyV6SMWF-9" value="&lt;font style=&quot;font-size: 18px&quot;&gt;S&amp;lt;--0&lt;/font&gt;" style="rounded=0;whiteSpace=wrap;html=1;sketch=0;strokeColor=#028090;fillColor=#F45B69;fontColor=#E4FDE1;" vertex="1" parent="WIyWlLk6GJQsqaUBKTNV-1">
          <mxGeometry x="394" y="150" width="120" height="60" as="geometry" />
        </mxCell>
        <mxCell id="ZSsBjlvNLSMKLyV6SMWF-14" style="edgeStyle=orthogonalEdgeStyle;curved=0;rounded=1;sketch=0;orthogonalLoop=1;jettySize=auto;html=1;exitX=0.5;exitY=1;exitDx=0;exitDy=0;entryX=0.5;entryY=0;entryDx=0;entryDy=0;strokeColor=#028090;fillColor=#F45B69;fontColor=#E4FDE1;labelBackgroundColor=#114B5F;" edge="1" parent="WIyWlLk6GJQsqaUBKTNV-1" source="ZSsBjlvNLSMKLyV6SMWF-11" target="ZSsBjlvNLSMKLyV6SMWF-13">
          <mxGeometry relative="1" as="geometry" />
        </mxCell>
        <mxCell id="ZSsBjlvNLSMKLyV6SMWF-11" value="&lt;font style=&quot;font-size: 18px&quot;&gt;i&amp;lt;--1&lt;/font&gt;" style="rounded=0;whiteSpace=wrap;html=1;sketch=0;strokeColor=#028090;fillColor=#F45B69;fontColor=#E4FDE1;" vertex="1" parent="WIyWlLk6GJQsqaUBKTNV-1">
          <mxGeometry x="394" y="270" width="120" height="60" as="geometry" />
        </mxCell>
        <mxCell id="ZSsBjlvNLSMKLyV6SMWF-19" style="edgeStyle=orthogonalEdgeStyle;curved=0;rounded=1;sketch=0;orthogonalLoop=1;jettySize=auto;html=1;exitX=0.5;exitY=1;exitDx=0;exitDy=0;strokeColor=#028090;fillColor=#F45B69;fontColor=#E4FDE1;labelBackgroundColor=#114B5F;entryX=0.5;entryY=0;entryDx=0;entryDy=0;" edge="1" parent="WIyWlLk6GJQsqaUBKTNV-1" source="ZSsBjlvNLSMKLyV6SMWF-13" target="ZSsBjlvNLSMKLyV6SMWF-20">
          <mxGeometry relative="1" as="geometry">
            <mxPoint x="454" y="590" as="targetPoint" />
          </mxGeometry>
        </mxCell>
        <mxCell id="ZSsBjlvNLSMKLyV6SMWF-13" value="&lt;font style=&quot;font-size: 18px&quot;&gt;S=S+i&lt;/font&gt;" style="rounded=0;whiteSpace=wrap;html=1;sketch=0;strokeColor=#028090;fillColor=#F45B69;fontColor=#E4FDE1;" vertex="1" parent="WIyWlLk6GJQsqaUBKTNV-1">
          <mxGeometry x="394" y="400" width="120" height="60" as="geometry" />
        </mxCell>
        <mxCell id="ZSsBjlvNLSMKLyV6SMWF-22" style="edgeStyle=orthogonalEdgeStyle;curved=0;rounded=1;sketch=0;orthogonalLoop=1;jettySize=auto;html=1;exitX=0.5;exitY=1;exitDx=0;exitDy=0;strokeColor=#028090;fillColor=#F45B69;fontColor=#E4FDE1;labelBackgroundColor=#114B5F;" edge="1" parent="WIyWlLk6GJQsqaUBKTNV-1" source="ZSsBjlvNLSMKLyV6SMWF-20">
          <mxGeometry relative="1" as="geometry">
            <mxPoint x="454" y="820" as="targetPoint" />
          </mxGeometry>
        </mxCell>
        <mxCell id="ZSsBjlvNLSMKLyV6SMWF-23" style="edgeStyle=orthogonalEdgeStyle;curved=0;rounded=1;sketch=0;orthogonalLoop=1;jettySize=auto;html=1;exitX=1;exitY=0.5;exitDx=0;exitDy=0;strokeColor=#028090;fillColor=#F45B69;fontColor=#E4FDE1;labelBackgroundColor=#114B5F;" edge="1" parent="WIyWlLk6GJQsqaUBKTNV-1" source="ZSsBjlvNLSMKLyV6SMWF-20">
          <mxGeometry relative="1" as="geometry">
            <mxPoint x="570" y="690" as="targetPoint" />
          </mxGeometry>
        </mxCell>
        <mxCell id="ZSsBjlvNLSMKLyV6SMWF-20" value="&lt;font style=&quot;font-size: 18px&quot;&gt;i=n&lt;/font&gt;" style="rhombus;whiteSpace=wrap;html=1;rounded=0;sketch=0;strokeColor=#028090;fillColor=#F45B69;fontColor=#E4FDE1;" vertex="1" parent="WIyWlLk6GJQsqaUBKTNV-1">
          <mxGeometry x="354" y="650" width="80" height="80" as="geometry" />
        </mxCell>
        <mxCell id="ZSsBjlvNLSMKLyV6SMWF-24" value="&lt;font style=&quot;font-size: 24px&quot;&gt;End&lt;/font&gt;" style="ellipse;whiteSpace=wrap;html=1;fillColor=#F45B69;strokeColor=#028090;fontColor=#E4FDE1;" vertex="1" parent="WIyWlLk6GJQsqaUBKTNV-1">
          <mxGeometry x="707" y="790" width="120" height="80" as="geometry" />
        </mxCell>
        <mxCell id="ZSsBjlvNLSMKLyV6SMWF-25" value="Đúng" style="text;html=1;strokeColor=none;fillColor=none;align=center;verticalAlign=middle;whiteSpace=wrap;rounded=0;sketch=0;fontColor=#E4FDE1;" vertex="1" parent="WIyWlLk6GJQsqaUBKTNV-1">
          <mxGeometry x="494" y="660" width="40" height="20" as="geometry" />
        </mxCell>
        <mxCell id="ZSsBjlvNLSMKLyV6SMWF-26" value="&lt;font style=&quot;font-size: 18px&quot;&gt;i&amp;lt;--i+1&lt;/font&gt;" style="rounded=0;whiteSpace=wrap;html=1;sketch=0;strokeColor=#028090;fillColor=#F45B69;fontColor=#E4FDE1;" vertex="1" parent="WIyWlLk6GJQsqaUBKTNV-1">
          <mxGeometry x="394" y="820" width="120" height="60" as="geometry" />
        </mxCell>
        <mxCell id="ZSsBjlvNLSMKLyV6SMWF-27" value="Sai" style="text;html=1;strokeColor=none;fillColor=none;align=center;verticalAlign=middle;whiteSpace=wrap;rounded=0;sketch=0;fontColor=#E4FDE1;" vertex="1" parent="WIyWlLk6GJQsqaUBKTNV-1">
          <mxGeometry x="394" y="750" width="40" height="20" as="geometry" />
        </mxCell>
        <mxCell id="ZSsBjlvNLSMKLyV6SMWF-29" value="" style="endArrow=none;html=1;strokeColor=#028090;fillColor=#F45B69;fontColor=#E4FDE1;" edge="1" parent="WIyWlLk6GJQsqaUBKTNV-1">
          <mxGeometry width="50" height="50" relative="1" as="geometry">
            <mxPoint x="250" y="850" as="sourcePoint" />
            <mxPoint x="394" y="850" as="targetPoint" />
          </mxGeometry>
        </mxCell>
        <mxCell id="ZSsBjlvNLSMKLyV6SMWF-30" value="" style="endArrow=none;html=1;strokeColor=#028090;fillColor=#F45B69;fontColor=#E4FDE1;" edge="1" parent="WIyWlLk6GJQsqaUBKTNV-1">
          <mxGeometry width="50" height="50" relative="1" as="geometry">
            <mxPoint x="250" y="850" as="sourcePoint" />
            <mxPoint x="250" y="490" as="targetPoint" />
          </mxGeometry>
        </mxCell>
        <mxCell id="ZSsBjlvNLSMKLyV6SMWF-31" value="" style="endArrow=classic;html=1;strokeColor=#028090;fillColor=#F45B69;fontColor=#E4FDE1;" edge="1" parent="WIyWlLk6GJQsqaUBKTNV-1">
          <mxGeometry width="50" height="50" relative="1" as="geometry">
            <mxPoint x="250" y="490" as="sourcePoint" />
            <mxPoint x="460" y="490" as="targetPoint" />
          </mxGeometry>
        </mxCell>
        <mxCell id="ZSsBjlvNLSMKLyV6SMWF-34" style="edgeStyle=orthogonalEdgeStyle;curved=0;rounded=1;sketch=0;orthogonalLoop=1;jettySize=auto;html=1;exitX=1;exitY=0.5;exitDx=0;exitDy=0;strokeColor=#028090;fillColor=#F45B69;fontColor=#E4FDE1;" edge="1" parent="WIyWlLk6GJQsqaUBKTNV-1" source="ZSsBjlvNLSMKLyV6SMWF-33" target="ZSsBjlvNLSMKLyV6SMWF-24">
          <mxGeometry relative="1" as="geometry" />
        </mxCell>
        <mxCell id="ZSsBjlvNLSMKLyV6SMWF-33" value="&lt;font style=&quot;font-size: 18px&quot;&gt;Xuất S&lt;/font&gt;" style="shape=parallelogram;perimeter=parallelogramPerimeter;whiteSpace=wrap;html=1;fixedSize=1;rounded=0;sketch=0;strokeColor=#028090;fillColor=#F45B69;fontColor=#E4FDE1;" vertex="1" parent="WIyWlLk6GJQsqaUBKTNV-1">
          <mxGeometry x="560" y="660" width="120" height="60" as="geometry" />
        </mxCell>
      </root>
    </mxGraphModel>
  </diagram>
</mxfile>
